<?xml version="1.0" encoding="utf-8"?>
<!-- Generator: Adobe Illustrator 17.1.0, SVG Export Plug-In . SVG Version: 6.00 Build 0)  -->
<!DOCTYPE svg PUBLIC "-//W3C//DTD SVG 1.1//EN" "http://www.w3.org/Graphics/SVG/1.1/DTD/svg11.dtd">
<svg version="1.1" id="Layer_1" xmlns="http://www.w3.org/2000/svg" xmlns:xlink="http://www.w3.org/1999/xlink" x="0px" y="0px"
	 viewBox="0 0 595.3 595.3" enable-background="new 0 0 595.3 595.3" xml:space="preserve">
<g>
	<linearGradient id="SVGID_1_" gradientUnits="userSpaceOnUse" x1="124.4184" y1="394.7109" x2="124.4184" y2="212.3089">
		<stop  offset="0" style="stop-color:#E6E6E6"/>
		<stop  offset="1" style="stop-color:#FFFFFF"/>
	</linearGradient>
	<path fill="url(#SVGID_1_)" d="M152.4,386.2c0,4.7-3.8,8.5-8.5,8.5h-39.1c-4.7,0-8.5-3.8-8.5-8.5V220.8c0-4.7,3.8-8.5,8.5-8.5h39.1
		c4.7,0,8.5,3.8,8.5,8.5V386.2z"/>
	<path fill="none" stroke="#000000" stroke-width="0.5" stroke-miterlimit="10" d="M152.4,386.2c0,4.7-3.8,8.5-8.5,8.5h-39.1
		c-4.7,0-8.5-3.8-8.5-8.5V220.8c0-4.7,3.8-8.5,8.5-8.5h39.1c4.7,0,8.5,3.8,8.5,8.5V386.2z"/>
</g>
<g>
	<linearGradient id="SVGID_2_" gradientUnits="userSpaceOnUse" x1="471.7633" y1="394.7109" x2="471.7633" y2="212.3089">
		<stop  offset="0" style="stop-color:#E6E6E6"/>
		<stop  offset="1" style="stop-color:#FFFFFF"/>
	</linearGradient>
	<path fill="url(#SVGID_2_)" d="M499.8,386.2c0,4.7-3.8,8.5-8.5,8.5h-39.1c-4.7,0-8.5-3.8-8.5-8.5V220.8c0-4.7,3.8-8.5,8.5-8.5h39.1
		c4.7,0,8.5,3.8,8.5,8.5V386.2z"/>
	<path fill="none" stroke="#000000" stroke-width="0.5" stroke-miterlimit="10" d="M499.8,386.2c0,4.7-3.8,8.5-8.5,8.5h-39.1
		c-4.7,0-8.5-3.8-8.5-8.5V220.8c0-4.7,3.8-8.5,8.5-8.5h39.1c4.7,0,8.5,3.8,8.5,8.5V386.2z"/>
</g>
<linearGradient id="SVGID_3_" gradientUnits="userSpaceOnUse" x1="297.7566" y1="205.8033" x2="297.7566" y2="86.6395">
	<stop  offset="0" style="stop-color:#E6E6E6"/>
	<stop  offset="1" style="stop-color:#FFFFFF"/>
</linearGradient>
<path fill="url(#SVGID_3_)" stroke="#000000" stroke-width="0.5" stroke-miterlimit="10" d="M297.8,86.6
	c-72.5,0-131.3,53.4-131.3,119.2h262.7C429.1,140,370.3,86.6,297.8,86.6z M237.8,161.9c-6.7,0-12.1-5.4-12.1-12.1
	c0-6.7,5.4-12.1,12.1-12.1c6.7,0,12.1,5.4,12.1,12.1C249.8,156.5,244.4,161.9,237.8,161.9z M357.3,161.9c-6.7,0-12.1-5.4-12.1-12.1
	c0-6.7,5.4-12.1,12.1-12.1c6.7,0,12.1,5.4,12.1,12.1C369.4,156.5,364,161.9,357.3,161.9z"/>
<linearGradient id="SVGID_4_" gradientUnits="userSpaceOnUse" x1="296.8772" y1="538.5223" x2="296.8772" y2="219.2214">
	<stop  offset="0" style="stop-color:#E6E6E6"/>
	<stop  offset="1" style="stop-color:#FFFFFF"/>
</linearGradient>
<path fill="url(#SVGID_4_)" stroke="#000000" stroke-width="0.5" stroke-miterlimit="10" d="M429.1,410.6H429
	c0.1,0.8,0.1,1.6,0.1,2.4c0,16.1-14,29.2-31.1,29.2h-23.1c1.3,3.6,2,7.5,2,11.6v53.6c0,17.1-12.6,31.1-28,31.1
	c-15.4,0-28-14-28-31.1v-53.6c0-4.1,0.7-8,2-11.6h-50.7c1.3,3.6,2,7.5,2,11.6v53.6c0,17.1-12.6,31.1-28,31.1c-15.4,0-28-14-28-31.1
	v-53.6c0-4.1,0.7-8,2-11.6h-24.6c-17.1,0-31.1-13.2-31.1-29.2c0-0.8,0-1.6,0.1-2.4h-0.1V219.2h264.5V410.6z"/>
<linearGradient id="SVGID_5_" gradientUnits="userSpaceOnUse" x1="224.6609" y1="100.7504" x2="224.6609" y2="56.7577">
	<stop  offset="0" style="stop-color:#E6E6E6"/>
	<stop  offset="1" style="stop-color:#FFFFFF"/>
</linearGradient>
<polygon fill="url(#SVGID_5_)" stroke="#000000" stroke-width="0.5" stroke-miterlimit="10" points="236.2,100.8 210,58.7 
	213.1,56.8 239.3,98.8 "/>
<linearGradient id="SVGID_6_" gradientUnits="userSpaceOnUse" x1="370.4379" y1="100.7486" x2="370.4379" y2="56.7591">
	<stop  offset="0" style="stop-color:#E6E6E6"/>
	<stop  offset="1" style="stop-color:#FFFFFF"/>
</linearGradient>
<polygon fill="url(#SVGID_6_)" stroke="#000000" stroke-width="0.5" stroke-miterlimit="10" points="358.9,100.7 355.8,98.8 
	382,56.8 385.1,58.7 "/>
</svg>
